<?xml version="1.0" encoding="UTF-8"?>
<svg id="Layer_2" data-name="Layer 2" xmlns="http://www.w3.org/2000/svg" viewBox="0 0 482.47 191.79">
  <g id="Layer_1-2" data-name="Layer 1">
    <g>
      <rect x="66.53" y="43.03" width="34.37" height="34.37"/>
      <path d="M89.44,112.03v46.13h11.47v-46.13h-11.47Zm0,0v46.13h11.47v-46.13h-11.47Zm0,0v46.13h11.47v-46.13h-11.47Zm0,0v46.13h11.47v-46.13h-11.47Zm0,0v46.13h11.47v-46.13h-11.47Zm0,0v46.13h11.47v-46.13h-11.47Zm0,0v46.13h11.47v-46.13h-11.47Zm0,0v46.13h11.47v-46.13h-11.47Zm0,0v46.13h11.47v-46.13h-11.47ZM314.1,43.03v34.37h11.46V43.03h-11.46ZM89.44,112.03v46.13h11.47v-46.13h-11.47Zm0,0v46.13h11.47v-46.13h-11.47ZM314.1,43.03v34.37h11.46V43.03h-11.46Zm0,0v34.37h11.46V43.03h-11.46ZM89.44,112.03v46.13h11.47v-46.13h-11.47Zm0,0v46.13h11.47v-46.13h-11.47ZM314.1,43.03v34.37h11.46V43.03h-11.46ZM89.44,112.03v46.13h11.47v-46.13h-11.47Zm0,0v46.13h11.47v-46.13h-11.47ZM314.1,43.03v34.37h11.46V43.03h-11.46ZM89.44,112.03v46.13h11.47v-46.13h-11.47Zm0,0v46.13h11.47v-46.13h-11.47ZM314.1,43.03v34.37h11.46V43.03h-11.46ZM89.44,112.03v46.13h11.47v-46.13h-11.47Zm0,0v46.13h11.47v-46.13h-11.47ZM314.1,43.03v34.37h11.46V43.03h-11.46ZM89.44,112.03v46.13h11.47v-46.13h-11.47ZM405.76,43.03v34.37h34.19V21.86H44.07V158.14h11V31.57h57.28v57.29h-45.82v80.73h-22.46v11.03H325.56V88.86h-11.46v80.2h-34.37v-11.46h22.92V31.57h34.37V180.62h102.93V88.86h-34.19v68.74h11.46v-57.28h11.46v68.74h-34.38V31.57h34.38v34.38h-11.46v-22.92h-11.46ZM112.37,169.62h-34.4v-11.46h.01v-57.59h34.37v.31h.02v68.74Zm90.78,0H122.95V32.13h11.46v126.03h68.74v11.46Zm0-23.17h-57.41v-34.42h.13v-.21h34.37v11.46h-23.04v11.71h34.5v-46.13h-45.96V31.57h11.46v45.83h34.5V31.57h11.45v114.88Zm88.04-.3h-11.46V43.03h-11.45v126.03h-11.46V43.03h-11.46v126.03h-11.46V31.57h57.29v114.58Zm91.66-57.29h-22.92v68.74h11.46v-57.28h11.46v68.74h-34.37V77.4h22.91V43.03h-11.46v22.92h-11.45V31.57h34.37v57.29Zm-68.75-11.46h11.46V43.03h-11.46v34.37ZM89.44,158.16h11.47v-46.13h-11.47v46.13Zm0-46.13v46.13h11.47v-46.13h-11.47ZM314.1,43.03v34.37h11.46V43.03h-11.46ZM89.44,112.03v46.13h11.47v-46.13h-11.47Zm0,0v46.13h11.47v-46.13h-11.47ZM314.1,43.03v34.37h11.46V43.03h-11.46ZM89.44,112.03v46.13h11.47v-46.13h-11.47Zm0,0v46.13h11.47v-46.13h-11.47ZM314.1,43.03v34.37h11.46V43.03h-11.46ZM89.44,112.03v46.13h11.47v-46.13h-11.47Zm0,0v46.13h11.47v-46.13h-11.47ZM314.1,43.03v34.37h11.46V43.03h-11.46ZM89.44,112.03v46.13h11.47v-46.13h-11.47Zm0,0v46.13h11.47v-46.13h-11.47ZM314.1,43.03v34.37h11.46V43.03h-11.46ZM89.44,112.03v46.13h11.47v-46.13h-11.47Zm0,0v46.13h11.47v-46.13h-11.47Zm0,0v46.13h11.47v-46.13h-11.47Zm0,0v46.13h11.47v-46.13h-11.47Zm0,0v46.13h11.47v-46.13h-11.47Zm0,0v46.13h11.47v-46.13h-11.47Zm0,0v46.13h11.47v-46.13h-11.47Zm0,0v46.13h11.47v-46.13h-11.47Zm0,0v46.13h11.47v-46.13h-11.47Zm0,0v46.13h11.47v-46.13h-11.47Z"/>
      <rect x="33.07" y="10.86" width="11" height="11"/>
      <rect x="439.95" y="180.62" width="11" height="11"/>
      <rect x="450.95" y="180.62" width="11" height="11"/>
      <rect x="303.33" y="10.86" width="11" height="11"/>
      <rect x="325.33" y="10.86" width="11" height="11"/>
      <rect x="325.56" y="180.62" width="11.43" height="11"/>
      <rect x="439.95" y="10.86" width="11" height="11"/>
      <rect x="471.47" y="21.86" width="11" height="11"/>
      <rect x="460.47" y="32.86" width="11" height="11"/>
      <rect x="460.47" y="54.86" width="11" height="11"/>
      <rect x="11" y="134.15" width="11" height="11"/>
      <rect y="123.15" width="11" height="11"/>
      <rect x="471.47" y="43.86" width="11" height="11"/>
      <rect x="428.95" width="11" height="11"/>
      <rect x="314.33" width="11" height="11"/>
      <rect x="22.21" width="11" height="11"/>
      <rect x="22.07" y="21.86" width="11" height="11"/>
      <rect x="33.07" y="32.86" width="11" height="11"/>
      <rect x="33.07" y="180.79" width="11" height="11"/>
      <rect x="22.07" y="169.79" width="11" height="11"/>
      <rect x="33.07" y="158.06" width="11" height="11.54"/>
    </g>
  </g>
</svg>